<svg width="183" height="56" viewBox="0 0 183 56" fill="none" xmlns="http://www.w3.org/2000/svg">
<g clip-path="url(#clip0_22129_45795)">
<path d="M26.1105 56.0001C25.7467 55.8645 25.36 55.8665 24.9832 55.8286C21.4998 55.4798 18.2186 54.4711 15.1417 52.8086C11.743 50.9717 8.88541 48.4958 6.51822 45.4489C6.43051 45.3363 6.3428 45.2226 6.2511 45.113C6.23217 45.0901 6.19728 45.0801 6.14745 45.0502C5.8285 45.2306 5.49959 45.423 5.16469 45.6024C4.83279 45.7798 4.53078 46.017 4.1311 46.1386C4.32945 43.3508 4.53278 40.5969 4.7371 37.8141C4.8597 37.842 4.92249 37.847 4.97631 37.8709C5.90923 38.2805 11.9403 41.3095 12.2453 41.5238C11.9543 41.7551 11.6224 41.9036 11.3134 42.089C11.0004 42.2764 10.6815 42.4558 10.3396 42.6531C10.4203 42.7737 10.4811 42.8814 10.5579 42.975C13.8709 47.0207 18.0511 49.6789 23.1742 50.8072C24.9553 51.1989 26.7624 51.3325 28.5883 51.2577C35.8534 50.9587 42.1645 47.0157 45.954 41.3753C47.8826 38.5038 49.1106 35.3572 49.6578 31.9415C49.9339 30.2191 50.0046 28.4879 49.907 26.7516C49.8083 24.9984 49.5073 23.2751 49.0119 21.5886C48.9671 21.4371 48.9272 21.2846 48.8773 21.1082C49.3169 20.8062 49.7893 20.5809 50.2408 20.3218C50.6963 20.0607 51.1548 19.8035 51.6163 19.5523C52.0748 19.3032 52.5163 19.0191 53.0207 18.7988C53.0745 18.9154 53.1283 19.0101 53.1622 19.1108C53.7014 20.7295 54.0951 22.383 54.3413 24.0724C54.5715 25.6522 54.6573 27.239 54.6264 28.8337C54.5446 33.0199 53.6077 37.0057 51.7379 40.7514C48.974 46.2861 44.8447 50.4863 39.298 53.2631C36.9328 54.4482 34.435 55.2366 31.8177 55.6313C31.0941 55.7409 30.3645 55.8157 29.6379 55.9104C29.4814 55.9303 29.3279 55.9692 29.1724 56.0001C28.1508 56.0001 27.1312 56.0001 26.1105 56.0001Z" fill="#17CE89"/>
<path d="M27.6408 0.000994641C27.861 0.0279058 28.0813 0.0697675 28.3016 0.0787379C32.3861 0.241202 36.2105 1.33459 39.7877 3.29711C42.8416 4.97258 45.455 7.18129 47.6726 9.86344C47.7733 9.98504 47.877 10.1056 47.9946 10.2452C48.0992 10.1953 48.2009 10.1575 48.2906 10.1017C48.7092 9.84051 49.1248 9.5734 49.5434 9.31026C49.6631 9.23451 49.7876 9.16674 49.9023 9.09996C50.0597 9.17471 50 9.30129 49.998 9.40096C49.9641 10.8332 49.9242 12.2665 49.8863 13.6988C49.8584 14.7493 49.8325 15.7998 49.8046 16.8504C49.7996 17.0218 49.7886 17.1942 49.7807 17.3567C49.5913 17.4474 49.4717 17.3358 49.3501 17.2829C48.0215 16.7059 46.6959 16.1208 45.3692 15.5387C44.3925 15.1101 43.4167 14.6805 42.4399 14.251C42.3382 14.2061 42.2376 14.1593 42.099 14.0965C42.1748 14.0177 42.2236 13.943 42.2934 13.8981C42.708 13.63 43.1266 13.3689 43.5443 13.1037C43.6778 13.019 43.8084 12.9303 43.925 12.8536C43.9708 12.714 43.8782 12.6562 43.8194 12.5884C40.5362 8.76706 36.4576 6.25934 31.5209 5.18488C29.4358 4.73138 27.3218 4.60978 25.1978 4.80414C21.0156 5.18588 17.2391 6.64506 13.9121 9.20162C9.55745 12.5476 6.76268 16.9231 5.44901 22.2456C4.96959 24.1872 4.75929 26.1636 4.79318 28.163C4.82806 30.2422 5.12209 32.2854 5.6952 34.2868C5.75201 34.4842 5.80284 34.6825 5.86265 34.9048C5.41413 35.2038 4.94268 35.433 4.49018 35.6922C4.04764 35.9443 3.60111 36.1895 3.15558 36.4377C2.6971 36.6929 2.23861 36.948 1.79906 37.1932C1.61467 37.1404 1.61766 36.9919 1.57879 36.8783C1.14821 35.6105 0.815308 34.3167 0.576098 32.9991C0.373766 31.8857 0.225256 30.7664 0.167447 29.6352C0.156483 29.4289 0.149506 29.2195 0 29.0521C0 28.2238 0 27.3956 0 26.5673C0.155487 26.365 0.158477 26.1218 0.172431 25.8846C0.271105 24.1622 0.531246 22.4638 0.965812 20.7964C2.76089 13.9171 6.5743 8.43715 12.4748 4.45729C16.5155 1.73228 20.9997 0.281071 25.8796 0.0767456C26.0849 0.0677752 26.2882 0.0269112 26.4925 0C26.8763 0.00099671 27.258 0.000994641 27.6408 0.000994641Z" fill="#17CE89"/>
<path d="M43.0538 28.0324C42.9701 32.71 41.3235 36.7247 37.9108 39.964C35.6822 42.08 33.0299 43.3967 29.9999 43.9319C28.6932 44.1632 27.3756 44.202 26.049 44.0904C20.287 43.605 15.0812 39.7348 12.8565 33.9628C12.0083 31.7631 11.6535 29.4796 11.7791 27.1284C12.0761 21.5757 15.0353 16.8742 19.2753 14.213C21.1073 13.0628 23.0917 12.3352 25.2356 12.0213C30.3926 11.2668 35.5944 13.2293 39.069 17.246C41.0654 19.5534 42.3023 22.2226 42.8226 25.2237C42.9821 26.1496 43.0698 27.0855 43.0538 28.0324ZM31.503 32.708C31.5897 32.693 31.6216 32.6791 31.6515 32.6841C31.7452 32.699 31.8388 32.7199 31.9315 32.7419C33.3887 33.0728 34.8589 33.1794 36.344 32.9731C36.9619 32.8874 37.56 32.7329 38.138 32.4967C38.3573 32.407 38.458 32.2694 38.454 32.0252C38.443 31.3405 38.459 30.6558 38.446 29.972C38.4181 28.4082 37.3287 27.266 35.7729 27.1434C34.9456 27.0776 34.1203 27.1483 33.294 27.1493C33.1994 27.1493 33.1037 27.1693 33.011 27.1902C32.1737 27.3766 31.5348 27.8361 31.0963 28.5756C31.0365 28.6763 31.0235 28.8208 30.8989 28.8537C30.7684 28.7341 30.6478 28.6304 30.5351 28.5208C30.1125 28.1092 29.6082 27.847 29.0341 27.7314C28.7391 27.6716 28.4351 27.6347 28.1341 27.6288C27.4822 27.6158 26.8304 27.6268 26.1775 27.6307C25.2037 27.6377 24.3755 27.9786 23.7127 28.7022C23.6529 28.768 23.5771 28.8198 23.4914 28.8916C23.4077 28.7182 23.3439 28.5736 23.2691 28.4351C22.9302 27.8042 22.4249 27.3586 21.7412 27.1424C21.4402 27.0467 21.1212 26.9759 20.8073 26.9659C20.0607 26.942 19.3092 26.9231 18.5647 26.9709C16.9659 27.0726 15.9782 28.3693 15.9513 29.4886C15.9324 30.284 15.9074 31.0794 15.8945 31.8747C15.8895 32.2007 15.9234 32.2455 16.2523 32.3412C16.6191 32.4478 16.9889 32.5445 17.3626 32.6223C19.1487 32.9921 20.9318 33.0439 22.706 32.5425C22.7638 32.5266 22.8266 32.5286 22.9243 32.5196C22.9243 32.7469 22.9203 32.9512 22.9253 33.1555C22.9332 33.4545 22.9711 33.5034 23.2552 33.602C23.315 33.623 23.3778 33.6349 23.4396 33.6529C25.0752 34.1403 26.7457 34.3217 28.446 34.204C29.3062 34.1442 30.1514 33.9878 30.9578 33.6668C31.0764 33.62 31.196 33.5751 31.3086 33.5153C31.4122 33.4605 31.475 33.3688 31.48 33.2462C31.487 33.0718 31.495 32.8994 31.503 32.708ZM27.1942 27.246C28.5557 27.2978 29.7507 26.1576 29.7527 24.7213C29.7547 23.3608 28.6474 22.2266 27.2689 22.2156C25.8695 22.2047 24.7104 23.2711 24.7144 24.6934C24.7193 26.4307 26.1197 27.2769 27.1942 27.246ZM19.8684 26.7367C21.1332 26.7088 22.1329 25.7779 22.1508 24.4582C22.1688 23.1814 21.1402 22.2076 19.9162 22.1917C18.6115 22.1748 17.6108 23.2024 17.6098 24.4333C17.6098 25.5925 18.455 26.6859 19.8684 26.7367ZM34.7084 22.1648C33.607 22.1349 32.4448 23.024 32.4329 24.3825C32.4209 25.7161 33.4804 26.6988 34.7173 26.6948C35.8436 26.6909 36.9739 25.7958 36.9709 24.3974C36.9669 22.996 35.7529 22.1299 34.7084 22.1648Z" fill="#17CE89"/>
<path d="M94.5269 17.9296C94.5049 18.4998 94.5179 19.04 94.5159 19.5792C94.5139 20.1204 94.5149 20.6616 94.5149 21.2038C94.5149 21.7291 94.5149 22.2554 94.5149 22.7806C94.5149 23.3218 94.5149 23.8631 94.5149 24.4053C94.5149 24.9475 94.5149 25.4877 94.5149 26.0299C94.5149 26.5711 94.5149 27.1123 94.5149 27.6545C94.5149 28.1958 94.5149 28.737 94.5149 29.2792C94.5149 29.8044 94.5149 30.3307 94.5149 30.856C94.5149 31.3972 94.5149 31.9384 94.5149 32.4806C94.5149 33.0228 94.5149 33.563 94.5149 34.1052C94.5149 34.6465 94.5149 35.1877 94.5149 35.7299C94.5149 36.2551 94.5149 36.7814 94.5149 37.3067C94.5149 37.8479 94.5179 38.3891 94.5139 38.9313C94.5099 39.4685 94.5329 40.0078 94.495 40.5609C94.3883 40.5769 94.3126 40.5958 94.2368 40.5988C92.9561 40.6467 88.3722 40.6158 87.9536 40.554C87.9406 40.4732 87.9187 40.3835 87.9137 40.2928C87.9067 40.1662 87.9117 40.0377 87.9117 39.9111C87.9117 28.3333 87.9117 16.7565 87.9127 5.17873C87.9127 4.97441 87.8888 4.76709 87.9416 4.57572C88.422 4.42721 94.0315 3.53317 94.4741 3.53516C94.5329 4.02255 94.494 4.51393 94.504 5.00331C94.5139 5.48074 94.5059 5.95916 94.5059 6.43658C94.5069 6.92995 94.5099 7.42432 94.5109 7.91769C94.5119 8.41106 94.5099 8.90543 94.5109 9.3988C94.5119 9.87623 94.5139 10.3546 94.5169 10.8321C94.5189 11.3244 94.5099 11.8158 94.5249 12.3421C94.6644 12.3241 94.7741 12.3251 94.8737 12.2942C95.8495 11.9932 96.8422 11.775 97.8539 11.6314C98.8676 11.4879 99.8852 11.446 100.906 11.5019C101.988 11.5607 103.064 11.6753 104.119 11.9434C105.02 12.1716 105.875 12.5075 106.688 12.9581C108.657 14.0514 109.961 15.704 110.749 17.7881C111.135 18.8058 111.353 19.8643 111.513 20.9367C111.703 22.2155 111.757 23.5032 111.757 24.794C111.756 29.8423 111.757 34.8907 111.755 39.939C111.755 40.1423 111.783 40.3506 111.721 40.528C111.685 40.556 111.674 40.5669 111.66 40.5739C111.646 40.5809 111.63 40.5878 111.615 40.5878C109.574 40.5918 107.535 40.5958 105.495 40.5988C105.431 40.5988 105.367 40.5968 105.304 40.5888C105.275 40.5849 105.248 40.5659 105.216 40.551C105.121 40.4084 105.158 40.245 105.157 40.0895C105.153 39.4366 105.155 38.7838 105.155 38.131C105.155 34.1501 105.158 30.1682 105.153 26.1874C105.152 25.407 105.14 24.6265 105.099 23.8471C105.045 22.8125 104.923 21.7859 104.633 20.7852C104.508 20.3556 104.348 19.941 104.141 19.5443C103.605 18.5197 102.782 17.8389 101.679 17.4881C100.864 17.229 100.025 17.1582 99.1785 17.1582C97.6855 17.1582 96.2342 17.4413 94.802 17.8379C94.7262 17.8579 94.6525 17.8868 94.5269 17.9296Z" fill="#17CE89"/>
<path d="M131.537 23.6571C131.565 23.6013 131.59 23.5744 131.591 23.5455C131.624 22.5727 131.616 21.6029 131.389 20.6491C130.965 18.86 129.853 17.7257 128.096 17.2134C127.449 17.025 126.782 16.9473 126.114 16.9383C123.614 16.9044 121.154 17.1805 118.758 17.9261C118.684 17.949 118.607 17.9629 118.504 17.9869C118.472 17.9041 118.43 17.8373 118.419 17.7656C118.166 16.13 117.916 14.4944 117.666 12.8588C117.659 12.8129 117.671 12.7651 117.675 12.7093C117.815 12.5966 117.99 12.5677 118.156 12.5189C119.272 12.188 120.411 11.9588 121.557 11.7634C123.431 11.4435 125.322 11.3248 127.222 11.3837C128.675 11.4285 130.114 11.593 131.504 12.0485C132.016 12.2169 132.524 12.4162 133.01 12.6495C135.204 13.701 136.617 15.4273 137.327 17.7367C137.656 18.8052 137.854 19.9025 137.918 21.0178C137.964 21.8122 137.992 22.6086 137.993 23.404C137.999 28.7065 137.996 34.009 137.996 39.3105C137.996 39.4998 137.996 39.6892 137.996 39.8856C137.816 39.9783 137.647 40.0092 137.476 40.0381C135.984 40.2872 134.495 40.5544 133 40.7756C131.834 40.9481 130.659 41.0437 129.481 41.1055C128.255 41.1693 127.029 41.2082 125.802 41.1793C124.205 41.1404 122.624 40.963 121.082 40.5245C120.283 40.2972 119.517 39.9872 118.799 39.5656C117.041 38.533 115.871 37.034 115.314 35.0794C114.835 33.399 114.787 31.6836 115.105 29.9713C115.475 27.9789 116.561 26.43 118.197 25.2608C119.353 24.4346 120.651 23.9223 122.029 23.6033C124.079 23.1279 126.156 23.0103 128.251 23.1468C129.189 23.2076 130.117 23.3541 131.036 23.5575C131.205 23.5953 131.375 23.6252 131.537 23.6571ZM131.568 28.3207C131.389 28.2749 131.222 28.228 131.053 28.1902C130.165 27.9888 129.265 27.8812 128.356 27.8423C127.222 27.7945 126.096 27.8772 124.982 28.1005C124.355 28.2261 123.752 28.4344 123.202 28.7683C122.376 29.2696 121.789 29.9623 121.611 30.9311C121.443 31.8531 121.49 32.7701 121.834 33.6551C122.079 34.286 122.494 34.7814 123.092 35.1014C123.413 35.2728 123.749 35.4253 124.093 35.5439C124.836 35.7991 125.608 35.9147 126.392 35.9326C127.667 35.9615 128.941 35.9456 130.211 35.821C130.665 35.7761 131.126 35.7512 131.556 35.6027C131.62 35.1293 131.648 30.5474 131.599 28.6158C131.598 28.5241 131.58 28.4314 131.568 28.3207Z" fill="#17CE89"/>
<path d="M180.765 12.7425C180.757 12.8411 180.761 12.9209 180.744 12.9956C180.368 14.6711 179.99 16.3456 179.604 18.0539C179.485 18.017 179.398 17.9971 179.316 17.9642C178.113 17.4848 176.872 17.1379 175.591 16.9525C174.326 16.7692 173.052 16.7263 171.776 16.8349C171.236 16.8808 170.704 16.9964 170.198 17.1997C169.992 17.2825 169.787 17.3732 169.591 17.4788C168.81 17.9004 168.399 18.5622 168.368 19.4473C168.335 20.3762 168.621 21.1796 169.389 21.7507C169.745 22.0158 170.124 22.256 170.514 22.4693C171.367 22.9388 172.278 23.2776 173.193 23.6066C174.513 24.08 175.808 24.6122 177.067 25.2302C177.927 25.6528 178.745 26.1422 179.491 26.7482C180.901 27.8934 181.757 29.3496 182.024 31.1516C182.224 32.5032 182.236 33.8477 181.914 35.1833C181.534 36.7611 180.688 38.0359 179.393 39.0127C178.4 39.7612 177.284 40.2575 176.098 40.6024C174.994 40.9233 173.864 41.1018 172.718 41.2054C171.492 41.316 170.265 41.3131 169.039 41.2722C167.557 41.2234 166.078 41.1048 164.638 40.717C163.671 40.4559 162.715 40.1509 161.755 39.8619C161.588 39.812 161.429 39.7413 161.244 39.6715C161.312 39.0356 161.479 38.4386 161.599 37.8346C161.718 37.2415 161.842 36.6495 161.965 36.0574C162.092 35.4514 162.219 34.8454 162.354 34.2045C162.48 34.2344 162.586 34.2464 162.683 34.2833C163.696 34.665 164.731 34.983 165.776 35.269C167.012 35.6069 168.273 35.7694 169.549 35.8242C170.489 35.8641 171.429 35.8641 172.366 35.7465C173.017 35.6647 173.657 35.5461 174.256 35.265C174.782 35.0179 175.179 34.6411 175.384 34.0899C175.535 33.6823 175.589 33.2577 175.548 32.8221C175.476 32.0317 175.114 31.3928 174.5 30.9084C174.164 30.6433 173.797 30.4131 173.425 30.1988C172.707 29.7851 171.947 29.4532 171.177 29.1483C170.2 28.7615 169.215 28.3937 168.243 27.9961C167.684 27.7668 167.137 27.5057 166.594 27.2396C165.833 26.8668 165.123 26.4113 164.47 25.8711C162.992 24.6471 162.121 23.0913 161.897 21.1786C161.756 19.9656 161.784 18.7646 162.089 17.5755C162.448 16.1771 163.169 15.001 164.237 14.0342C165.344 13.0305 166.641 12.3727 168.066 11.9561C169.312 11.5913 170.59 11.4258 171.883 11.3849C174.126 11.3142 176.338 11.5604 178.516 12.0896C179.165 12.2471 179.806 12.4385 180.45 12.6179C180.556 12.6448 180.653 12.6966 180.765 12.7425Z" fill="#17CE89"/>
<path d="M142.995 4.63308C143.064 4.59321 143.102 4.55533 143.146 4.54736C145.156 4.21047 147.165 3.87558 149.177 3.54268C149.298 3.52274 149.423 3.52175 149.58 3.50879C149.615 3.84568 149.595 4.16263 149.599 4.47659C149.602 4.79554 149.6 5.11349 149.6 5.43244C149.6 5.73544 149.6 6.03744 149.6 6.34044C149.6 6.65938 149.6 6.97733 149.6 7.29628C149.6 7.61523 149.6 7.93318 149.6 8.25212C149.6 8.57107 149.6 8.88902 149.6 9.20797C149.6 9.51097 149.6 9.81297 149.6 10.116C149.6 10.4349 149.597 10.7529 149.601 11.0718C149.605 11.3868 149.58 11.7037 149.619 11.9968C149.796 12.1154 149.959 12.0765 150.114 12.0775C150.927 12.0815 151.739 12.0795 152.552 12.0795C154.752 12.0795 156.952 12.0795 159.151 12.0805C159.324 12.0805 159.497 12.0904 159.693 12.0964C159.712 12.1901 159.74 12.2639 159.74 12.3376C159.742 14.0101 159.742 15.6816 159.74 17.3541C159.74 17.4149 159.722 17.4747 159.711 17.5454C159.533 17.6212 159.357 17.5883 159.187 17.5883C156.19 17.5903 153.193 17.5903 150.197 17.5903C150.024 17.5903 149.849 17.5903 149.657 17.5903C149.635 17.7069 149.611 17.7956 149.603 17.8863C149.594 17.981 149.6 18.0777 149.6 18.1724C149.6 21.8353 149.598 25.4982 149.601 29.1611C149.602 30.1339 149.651 31.1047 149.869 32.0565C149.965 32.4731 150.09 32.8878 150.247 33.2855C150.676 34.3689 151.487 35.0367 152.598 35.3466C153.075 35.4802 153.564 35.541 154.06 35.5629C155.79 35.6377 157.452 35.3118 159.076 34.7456C159.3 34.6669 159.525 34.5911 159.771 34.5064C159.811 34.624 159.855 34.7237 159.88 34.8284C160.247 36.3842 160.83 39.3195 160.85 39.7112C160.806 39.7371 160.755 39.775 160.7 39.7969C159.528 40.2614 158.333 40.6471 157.1 40.9133C155.801 41.1943 154.48 41.2601 153.155 41.2392C152.103 41.2222 151.055 41.1355 150.024 40.9073C149.133 40.7099 148.281 40.4119 147.474 39.9793C145.829 39.0953 144.728 37.7387 144.029 36.0314C143.646 35.0975 143.425 34.1207 143.274 33.128C143.069 31.7715 142.994 30.405 142.995 29.0335C142.997 21.1027 142.996 13.1719 142.996 5.24107C142.995 5.03276 142.995 4.82644 142.995 4.63308Z" fill="#17CE89"/>
<path d="M84.5617 34.4821C84.7013 34.9117 85.4777 39.4727 85.4817 39.8743C85.3123 40.0069 85.098 40.0707 84.8917 40.1484C83.9647 40.4993 83.0009 40.7116 82.0301 40.897C80.2689 41.2329 78.4908 41.3505 76.7017 41.2757C74.8598 41.199 73.0597 40.894 71.3434 40.1913C68.0353 38.8368 65.7618 36.4726 64.483 33.1476C63.9777 31.8339 63.6647 30.4714 63.4923 29.075C63.3697 28.0773 63.3049 27.0776 63.3229 26.0729C63.3677 23.6071 63.8312 21.2309 64.9096 18.9993C66.8074 15.0713 69.9091 12.6433 74.1621 11.6974C75.7279 11.3495 77.3206 11.3077 78.9184 11.4223C80.3217 11.522 81.7022 11.7472 83.0527 12.1429C83.6169 12.3084 84.17 12.5127 84.7272 12.7031C84.8308 12.739 84.9285 12.7908 85.0491 12.8436C85.0292 12.9792 85.0232 13.1047 84.9923 13.2234C84.5867 14.7782 84.178 16.3331 83.7674 17.887C83.7395 17.9926 83.6926 18.0923 83.6497 18.2089C83.5252 18.168 83.4205 18.1391 83.3178 18.1002C82.2583 17.6946 81.1689 17.3936 80.0447 17.2391C78.6802 17.0527 77.3137 17.0178 75.9532 17.2969C73.9707 17.7026 72.4487 18.7561 71.4221 20.5093C70.8351 21.512 70.4912 22.6004 70.2988 23.7386C70.0377 25.2885 70.0237 26.8464 70.2131 28.4032C70.3427 29.4667 70.5978 30.5003 71.0454 31.4801C71.0912 31.5817 71.1371 31.6834 71.1859 31.7831C72.0789 33.6439 73.5481 34.7851 75.5485 35.2556C76.3259 35.438 77.1143 35.5347 77.9147 35.5576C80.0895 35.6204 82.1995 35.2815 84.2498 34.5589C84.3524 34.524 84.4601 34.5071 84.5617 34.4821Z" fill="#17CE89"/>
<path d="M65.9323 50.2108C65.7828 50.2885 65.4528 50.3922 65.0312 50.3922C64.0854 50.3922 63.4694 49.7503 63.4694 48.7915C63.4694 47.8257 64.1302 47.126 65.1538 47.126C65.4907 47.126 65.7887 47.2097 65.9442 47.2874L65.8146 47.728C65.6781 47.6502 65.4648 47.5795 65.1538 47.5795C64.4352 47.5795 64.0455 48.1107 64.0455 48.7646C64.0455 49.4902 64.5119 49.9377 65.1339 49.9377C65.4578 49.9377 65.6711 49.854 65.8336 49.7822L65.9323 50.2108Z" fill="#17CE89"/>
<path d="M69.3977 48.7338C69.3977 49.893 68.5944 50.3994 67.8359 50.3994C66.9867 50.3994 66.3328 49.7774 66.3328 48.7857C66.3328 47.7361 67.0196 47.1201 67.8877 47.1201C68.7887 47.1211 69.3977 47.775 69.3977 48.7338ZM66.9099 48.7667C66.9099 49.4535 67.3046 49.9718 67.8618 49.9718C68.406 49.9718 68.8147 49.4605 68.8147 48.7538C68.8147 48.2225 68.5485 47.5487 67.8748 47.5487C67.202 47.5487 66.9099 48.1707 66.9099 48.7667Z" fill="#17CE89"/>
<path d="M70.1178 48.0411C70.1178 47.7171 70.1108 47.451 70.0919 47.1929H70.5972L70.6301 47.7111H70.6431C70.7986 47.4131 71.1614 47.1211 71.6796 47.1211C72.1142 47.1211 72.788 47.3802 72.788 48.4557V50.3285H72.2179V48.5205C72.2179 48.0151 72.0305 47.5945 71.4923 47.5945C71.1165 47.5945 70.8245 47.8607 70.7278 48.1776C70.7019 48.2484 70.6889 48.346 70.6889 48.4437V50.3295H70.1188V48.0411H70.1178Z" fill="#17CE89"/>
<path d="M73.8492 47.1924L74.4642 48.9546C74.5678 49.2396 74.6526 49.4988 74.7173 49.7579H74.7373C74.808 49.4988 74.8987 49.2396 75.0034 48.9546L75.6124 47.1924H76.2084L74.9775 50.328H74.4333L73.2412 47.1924H73.8492Z" fill="#17CE89"/>
<path d="M76.9976 48.8633C77.0106 49.6348 77.503 49.9517 78.0731 49.9517C78.4808 49.9517 78.7279 49.881 78.9412 49.7903L79.0389 50.1989C78.8376 50.2896 78.4947 50.3933 77.9954 50.3933C77.0295 50.3933 76.4534 49.7584 76.4534 48.8125C76.4534 47.8666 77.0106 47.1221 77.9246 47.1221C78.9482 47.1221 79.2203 48.0231 79.2203 48.5992C79.2203 48.7158 79.2074 48.8065 79.2014 48.8653H76.9976V48.8633ZM78.6691 48.4557C78.6761 48.0929 78.5206 47.5297 77.8787 47.5297C77.3016 47.5297 77.0495 48.061 77.0036 48.4557H78.6691Z" fill="#17CE89"/>
<path d="M80.1724 47.1924L80.62 47.8662C80.7366 48.0406 80.8333 48.2031 80.9369 48.3785H80.9569C81.0605 48.1901 81.1642 48.0286 81.2678 47.8602L81.7084 47.1924H82.3243L81.2549 48.7084L82.3562 50.3281H81.7084L81.2479 49.6224C81.1253 49.441 81.0216 49.2656 80.911 49.0782H80.898C80.7944 49.2666 80.6838 49.435 80.5671 49.6224L80.1136 50.3281H79.4847L80.599 48.7273L79.5365 47.1914H80.1724V47.1924Z" fill="#17CE89"/>
<path d="M83.5411 46.3109C83.5471 46.5053 83.4045 46.6608 83.1783 46.6608C82.978 46.6608 82.8354 46.5053 82.8354 46.3109C82.8354 46.1106 82.985 45.9541 83.1923 45.9541C83.4046 45.9541 83.5411 46.1106 83.5411 46.3109ZM82.9062 50.3277V47.192H83.4763V50.3277H82.9062Z" fill="#17CE89"/>
<path d="M85.1092 46.292V47.193H85.9255V47.6266H85.1092V49.3181C85.1092 49.7068 85.2198 49.9271 85.5367 49.9271C85.6853 49.9271 85.7959 49.9071 85.8667 49.8882L85.8926 50.3158C85.7829 50.3616 85.6075 50.3935 85.3872 50.3935C85.1211 50.3935 84.9078 50.3088 84.7713 50.1533C84.6098 49.9849 84.551 49.7058 84.551 49.337V47.6266H84.0646V47.193H84.551V46.4415L85.1092 46.292Z" fill="#17CE89"/>
<path d="M86.8323 47.1924L87.519 49.0453C87.5908 49.2526 87.6685 49.4988 87.7204 49.6862H87.7333C87.7911 49.4988 87.8569 49.2586 87.9337 49.0323L88.5556 47.1924H89.1586L88.3034 49.428C87.8958 50.5035 87.6167 51.0546 87.228 51.3915C86.9499 51.6377 86.6708 51.7354 86.5283 51.7613L86.3858 51.2819C86.5283 51.236 86.7167 51.1453 86.8841 51.0028C87.0396 50.8802 87.234 50.6599 87.3635 50.3679C87.3895 50.3101 87.4094 50.2642 87.4094 50.2323C87.4094 50.1995 87.3964 50.1546 87.3705 50.0828L86.2113 47.1934H86.8323V47.1924Z" fill="#17CE89"/>
<path d="M91.0494 45.7275H91.6195V47.6841H91.6325C91.7232 47.5226 91.8657 47.3801 92.0401 47.2824C92.2085 47.1847 92.4099 47.1209 92.6232 47.1209C93.0447 47.1209 93.7185 47.3801 93.7185 48.4625V50.3284H93.1484V48.5273C93.1484 48.022 92.96 47.5944 92.4228 47.5944C92.0531 47.5944 91.762 47.8535 91.6584 48.1645C91.6255 48.2422 91.6195 48.326 91.6195 48.4366V50.3284H91.0494V45.7275Z" fill="#17CE89"/>
<path d="M97.2687 49.4729C97.2687 49.7969 97.2756 50.0819 97.2946 50.3281H96.7892L96.7574 49.8168H96.7444C96.5949 50.07 96.265 50.3999 95.7078 50.3999C95.2154 50.3999 94.6254 50.1278 94.6254 49.0264V47.1924H95.1955V48.9287C95.1955 49.5247 95.3769 49.9264 95.8952 49.9264C96.2769 49.9264 96.5431 49.6603 96.6467 49.4081C96.6796 49.3244 96.6985 49.2207 96.6985 49.1171V47.1924H97.2687V49.4729Z" fill="#17CE89"/>
<path d="M98.2146 48.0411C98.2146 47.7171 98.2077 47.451 98.1887 47.1929H98.6871L98.713 47.6982H98.7329C98.9073 47.4002 99.1994 47.1211 99.7177 47.1211C100.145 47.1211 100.469 47.3802 100.606 47.749H100.619C100.716 47.5746 100.839 47.438 100.969 47.3414C101.156 47.1988 101.363 47.1211 101.662 47.1211C102.077 47.1211 102.692 47.3932 102.692 48.4816V50.3285H102.135V48.5534C102.135 47.9514 101.914 47.5876 101.454 47.5876C101.13 47.5876 100.877 47.8278 100.78 48.1058C100.754 48.1836 100.734 48.2872 100.734 48.3909V50.3285H100.177V48.4497C100.177 47.9514 99.9569 47.5876 99.5223 47.5876C99.1655 47.5876 98.9073 47.8726 98.8166 48.1577C98.7837 48.2414 98.7708 48.3391 98.7708 48.4358V50.3275H98.2136V48.0411H98.2146Z" fill="#17CE89"/>
<path d="M105.354 50.3275L105.308 49.9328H105.288C105.114 50.179 104.776 50.3993 104.329 50.3993C103.695 50.3993 103.371 49.9517 103.371 49.4982C103.371 48.7397 104.044 48.3251 105.256 48.3321V48.2673C105.256 48.0082 105.186 47.5417 104.544 47.5417C104.253 47.5417 103.948 47.6324 103.727 47.7749L103.598 47.3992C103.857 47.2307 104.233 47.1211 104.628 47.1211C105.587 47.1211 105.821 47.7749 105.821 48.4039V49.577C105.821 49.8491 105.833 50.1142 105.872 50.3285H105.354V50.3275ZM105.27 48.7278C104.648 48.7148 103.942 48.8255 103.942 49.4335C103.942 49.8032 104.188 49.9777 104.48 49.9777C104.888 49.9777 105.148 49.7185 105.237 49.4524C105.257 49.3946 105.27 49.3288 105.27 49.271V48.7278Z" fill="#17CE89"/>
<path d="M106.741 48.0411C106.741 47.7171 106.735 47.451 106.715 47.1929H107.22L107.253 47.7111H107.266C107.421 47.4131 107.784 47.1211 108.302 47.1211C108.737 47.1211 109.411 47.3802 109.411 48.4557V50.3285H108.841V48.5205C108.841 48.0151 108.652 47.5945 108.115 47.5945C107.739 47.5945 107.447 47.8607 107.35 48.1776C107.325 48.2484 107.312 48.346 107.312 48.4437V50.3295H106.742V48.0411H106.741Z" fill="#17CE89"/>
<path d="M110.971 46.3109C110.978 46.5053 110.835 46.6608 110.608 46.6608C110.407 46.6608 110.264 46.5053 110.264 46.3109C110.264 46.1106 110.414 45.9541 110.621 45.9541C110.835 45.9541 110.971 46.1106 110.971 46.3109ZM110.336 50.3277V47.192H110.906V50.3277H110.336Z" fill="#17CE89"/>
<path d="M112.538 46.292V47.193H113.355V47.6266H112.538V49.3181C112.538 49.7068 112.648 49.9271 112.966 49.9271C113.115 49.9271 113.225 49.9071 113.297 49.8882L113.323 50.3158C113.212 50.3616 113.038 50.3935 112.817 50.3935C112.551 50.3935 112.338 50.3088 112.202 50.1533C112.041 49.9849 111.982 49.7058 111.982 49.337V47.6266H111.496V47.193H111.982V46.4415L112.538 46.292Z" fill="#17CE89"/>
<path d="M115.733 50.3275L115.687 49.9328H115.667C115.493 50.179 115.156 50.3993 114.708 50.3993C114.073 50.3993 113.75 49.9517 113.75 49.4982C113.75 48.7397 114.423 48.3251 115.635 48.3321V48.2673C115.635 48.0082 115.564 47.5417 114.923 47.5417C114.631 47.5417 114.327 47.6324 114.106 47.7749L113.977 47.3992C114.236 47.2307 114.612 47.1211 115.006 47.1211C115.965 47.1211 116.198 47.7749 116.198 48.4039V49.577C116.198 49.8491 116.211 50.1142 116.25 50.3285H115.733V50.3275ZM115.648 48.7278C115.026 48.7148 114.32 48.8255 114.32 49.4335C114.32 49.8032 114.566 49.9777 114.858 49.9777C115.266 49.9777 115.526 49.7185 115.616 49.4524C115.636 49.3946 115.649 49.3288 115.649 49.271V48.7278H115.648Z" fill="#17CE89"/>
<path d="M117.119 48.1706C117.119 47.8009 117.112 47.4839 117.093 47.1919H117.592L117.612 47.8068H117.638C117.78 47.3862 118.124 47.1201 118.506 47.1201C118.57 47.1201 118.616 47.1261 118.667 47.1391V47.6773C118.609 47.6643 118.551 47.6573 118.473 47.6573C118.071 47.6573 117.786 47.9623 117.708 48.3899C117.695 48.4677 117.682 48.5584 117.682 48.656V50.3275H117.118V48.1706H117.119Z" fill="#17CE89"/>
<path d="M119.898 46.3109C119.904 46.5053 119.761 46.6608 119.535 46.6608C119.335 46.6608 119.192 46.5053 119.192 46.3109C119.192 46.1106 119.342 45.9541 119.549 45.9541C119.762 45.9541 119.898 46.1106 119.898 46.3109ZM119.263 50.3277V47.192H119.833V50.3277H119.263Z" fill="#17CE89"/>
<path d="M122.515 50.3275L122.47 49.9328H122.45C122.275 50.179 121.938 50.3993 121.491 50.3993C120.856 50.3993 120.532 49.9517 120.532 49.4982C120.532 48.7397 121.206 48.3251 122.418 48.3321V48.2673C122.418 48.0082 122.346 47.5417 121.705 47.5417C121.413 47.5417 121.109 47.6324 120.889 47.7749L120.759 47.3992C121.018 47.2307 121.394 47.1211 121.789 47.1211C122.748 47.1211 122.981 47.7749 122.981 48.4039V49.577C122.981 49.8491 122.994 50.1142 123.033 50.3285H122.515V50.3275ZM122.432 48.7278C121.81 48.7148 121.103 48.8255 121.103 49.4335C121.103 49.8032 121.349 49.9777 121.641 49.9777C122.05 49.9777 122.309 49.7185 122.4 49.4524C122.42 49.3946 122.433 49.3288 122.433 49.271V48.7278H122.432Z" fill="#17CE89"/>
<path d="M123.902 48.0411C123.902 47.7171 123.895 47.451 123.876 47.1929H124.381L124.414 47.7111H124.427C124.583 47.4131 124.945 47.1211 125.464 47.1211C125.898 47.1211 126.572 47.3802 126.572 48.4557V50.3285H126.002V48.5205C126.002 48.0151 125.815 47.5945 125.276 47.5945C124.901 47.5945 124.609 47.8607 124.512 48.1776C124.486 48.2484 124.473 48.346 124.473 48.4437V50.3295H123.903V48.0411H123.902Z" fill="#17CE89"/>
<path d="M130.608 50.3275L130.562 49.9328H130.542C130.368 50.179 130.031 50.3993 129.583 50.3993C128.948 50.3993 128.624 49.9517 128.624 49.4982C128.624 48.7397 129.298 48.3251 130.51 48.3321V48.2673C130.51 48.0082 130.438 47.5417 129.798 47.5417C129.506 47.5417 129.202 47.6324 128.981 47.7749L128.852 47.3992C129.111 47.2307 129.487 47.1211 129.881 47.1211C130.84 47.1211 131.073 47.7749 131.073 48.4039V49.577C131.073 49.8491 131.086 50.1142 131.125 50.3285H130.608V50.3275ZM130.523 48.7278C129.901 48.7148 129.195 48.8255 129.195 49.4335C129.195 49.8032 129.441 49.9777 129.733 49.9777C130.141 49.9777 130.401 49.7185 130.491 49.4524C130.511 49.3946 130.524 49.3288 130.524 49.271V48.7278H130.523Z" fill="#17CE89"/>
<path d="M132.629 46.3109C132.635 46.5053 132.492 46.6608 132.266 46.6608C132.066 46.6608 131.923 46.5053 131.923 46.3109C131.923 46.1106 132.073 45.9541 132.28 45.9541C132.492 45.9541 132.629 46.1106 132.629 46.3109ZM131.994 50.3277V47.192H132.564V50.3277H131.994Z" fill="#17CE89"/>
<path d="M136.218 45.7276V49.5181C136.218 49.7961 136.225 50.1141 136.244 50.3274H135.732L135.706 49.7832H135.693C135.519 50.133 135.136 50.3982 134.624 50.3982C133.865 50.3982 133.282 49.7563 133.282 48.8044C133.275 47.7609 133.923 47.12 134.688 47.12C135.168 47.12 135.492 47.3462 135.634 47.5994H135.647V45.7266H136.218V45.7276ZM135.648 48.4685C135.648 48.3968 135.641 48.3001 135.622 48.2283C135.538 47.8655 135.227 47.5675 134.799 47.5675C134.209 47.5675 133.86 48.0858 133.86 48.7795C133.86 49.4144 134.171 49.9387 134.786 49.9387C135.168 49.9387 135.519 49.6855 135.622 49.2579C135.641 49.1802 135.648 49.1024 135.648 49.0117V48.4685Z" fill="#17CE89"/>
<path d="M139.223 46.292V47.193H140.039V47.6266H139.223V49.3181C139.223 49.7068 139.334 49.9271 139.651 49.9271C139.799 49.9271 139.91 49.9071 139.981 49.8882L140.007 50.3158C139.897 50.3616 139.722 50.3935 139.501 50.3935C139.235 50.3935 139.022 50.3088 138.885 50.1533C138.724 49.9849 138.665 49.7058 138.665 49.337V47.6266H138.179V47.193H138.665V46.4415L139.223 46.292Z" fill="#17CE89"/>
<path d="M140.682 48.1706C140.682 47.8009 140.675 47.4839 140.656 47.1919H141.154L141.174 47.8068H141.2C141.343 47.3862 141.686 47.1201 142.068 47.1201C142.133 47.1201 142.179 47.1261 142.23 47.1391V47.6773C142.172 47.6643 142.113 47.6573 142.035 47.6573C141.634 47.6573 141.349 47.9623 141.271 48.3899C141.258 48.4677 141.245 48.5584 141.245 48.656V50.3275H140.681V48.1706H140.682Z" fill="#17CE89"/>
<path d="M144.504 50.3275L144.458 49.9328H144.438C144.264 50.179 143.926 50.3993 143.479 50.3993C142.844 50.3993 142.52 49.9517 142.52 49.4982C142.52 48.7397 143.194 48.3251 144.406 48.3321V48.2673C144.406 48.0082 144.335 47.5417 143.693 47.5417C143.402 47.5417 143.097 47.6324 142.877 47.7749L142.748 47.3992C143.007 47.2307 143.383 47.1211 143.778 47.1211C144.737 47.1211 144.97 47.7749 144.97 48.4039V49.577C144.97 49.8491 144.983 50.1142 145.022 50.3285H144.504V50.3275ZM144.419 48.7278C143.797 48.7148 143.09 48.8255 143.09 49.4335C143.09 49.8032 143.337 49.9777 143.629 49.9777C144.036 49.9777 144.297 49.7185 144.386 49.4524C144.406 49.3946 144.419 49.3288 144.419 49.271V48.7278Z" fill="#17CE89"/>
<path d="M145.89 48.0411C145.89 47.7171 145.884 47.451 145.864 47.1929H146.37L146.403 47.7111H146.416C146.571 47.4131 146.934 47.1211 147.452 47.1211C147.887 47.1211 148.56 47.3802 148.56 48.4557V50.3285H147.99V48.5205C147.99 48.0151 147.802 47.5945 147.265 47.5945C146.889 47.5945 146.597 47.8607 146.5 48.1776C146.474 48.2484 146.461 48.346 146.461 48.4437V50.3295H145.891V48.0411H145.89Z" fill="#17CE89"/>
<path d="M149.408 49.7445C149.576 49.8551 149.874 49.9717 150.159 49.9717C150.574 49.9717 150.768 49.7644 150.768 49.5052C150.768 49.2331 150.607 49.0836 150.185 48.9281C149.621 48.7278 149.356 48.4168 149.356 48.0401C149.356 47.5347 149.764 47.1201 150.438 47.1201C150.756 47.1201 151.034 47.2108 151.21 47.3145L151.067 47.7291C150.944 47.6514 150.717 47.5477 150.425 47.5477C150.089 47.5477 149.9 47.7421 149.9 47.9753C149.9 48.2344 150.089 48.3511 150.496 48.5065C151.04 48.7139 151.318 48.986 151.318 49.4524C151.318 50.0036 150.891 50.3923 150.146 50.3923C149.802 50.3923 149.486 50.3076 149.265 50.178L149.408 49.7445Z" fill="#17CE89"/>
<path d="M152.11 50.3279V47.6258H151.669V47.1922H152.11V47.0427C152.11 46.6021 152.207 46.2005 152.473 45.9473C152.687 45.74 152.972 45.6553 153.237 45.6553C153.438 45.6553 153.613 45.7011 153.724 45.746L153.646 46.1865C153.562 46.1477 153.446 46.1148 153.283 46.1148C152.797 46.1148 152.674 46.5423 152.674 47.0218V47.1902H153.433V47.6238H152.674V50.3259H152.11V50.3279Z" fill="#17CE89"/>
<path d="M154.176 48.8633C154.189 49.6348 154.681 49.9517 155.252 49.9517C155.659 49.9517 155.906 49.881 156.12 49.7903L156.217 50.1989C156.016 50.2896 155.673 50.3933 155.174 50.3933C154.208 50.3933 153.632 49.7584 153.632 48.8125C153.632 47.8666 154.189 47.1221 155.103 47.1221C156.127 47.1221 156.399 48.0231 156.399 48.5992C156.399 48.7158 156.386 48.8065 156.38 48.8653H154.176V48.8633ZM155.848 48.4557C155.855 48.0929 155.699 47.5297 155.057 47.5297C154.48 47.5297 154.228 48.061 154.182 48.4557H155.848Z" fill="#17CE89"/>
<path d="M157.104 48.1706C157.104 47.8009 157.097 47.4839 157.079 47.1919H157.577L157.597 47.8068H157.623C157.765 47.3862 158.109 47.1201 158.491 47.1201C158.556 47.1201 158.602 47.1261 158.652 47.1391V47.6773C158.595 47.6643 158.536 47.6573 158.458 47.6573C158.056 47.6573 157.771 47.9623 157.694 48.3899C157.681 48.4677 157.668 48.5584 157.668 48.656V50.3275H157.103V48.1706H157.104Z" fill="#17CE89"/>
<path d="M160.519 49.7445C160.688 49.8551 160.986 49.9717 161.271 49.9717C161.685 49.9717 161.88 49.7644 161.88 49.5052C161.88 49.2331 161.718 49.0836 161.297 48.9281C160.732 48.7278 160.467 48.4168 160.467 48.0401C160.467 47.5347 160.875 47.1201 161.549 47.1201C161.867 47.1201 162.145 47.2108 162.32 47.3145L162.178 47.7291C162.054 47.6514 161.828 47.5477 161.536 47.5477C161.199 47.5477 161.012 47.7421 161.012 47.9753C161.012 48.2344 161.199 48.3511 161.608 48.5065C162.152 48.7139 162.43 48.986 162.43 49.4524C162.43 50.0036 162.002 50.3923 161.257 50.3923C160.913 50.3923 160.596 50.3076 160.376 50.178L160.519 49.7445Z" fill="#17CE89"/>
<path d="M166 48.7338C166 49.893 165.197 50.3994 164.438 50.3994C163.589 50.3994 162.935 49.7774 162.935 48.7857C162.935 47.7361 163.622 47.1201 164.49 47.1201C165.391 47.1211 166 47.775 166 48.7338ZM163.512 48.7667C163.512 49.4535 163.907 49.9718 164.464 49.9718C165.009 49.9718 165.417 49.4605 165.417 48.7538C165.417 48.2225 165.151 47.5487 164.477 47.5487C163.803 47.5487 163.512 48.1707 163.512 48.7667Z" fill="#17CE89"/>
<path d="M166.719 45.7275H167.289V50.3274H166.719V45.7275Z" fill="#17CE89"/>
<path d="M170.872 49.4729C170.872 49.7969 170.878 50.0819 170.898 50.3281H170.393L170.36 49.8168H170.347C170.197 50.07 169.867 50.3999 169.31 50.3999C168.818 50.3999 168.228 50.1278 168.228 49.0264V47.1924H168.798V48.9287C168.798 49.5247 168.979 49.9264 169.498 49.9264C169.88 49.9264 170.146 49.6603 170.249 49.4081C170.281 49.3244 170.301 49.2207 170.301 49.1171V47.1924H170.871V49.4729H170.872Z" fill="#17CE89"/>
<path d="M172.505 46.292V47.193H173.321V47.6266H172.505V49.3181C172.505 49.7068 172.614 49.9271 172.932 49.9271C173.082 49.9271 173.191 49.9071 173.263 49.8882L173.289 50.3158C173.178 50.3616 173.004 50.3935 172.784 50.3935C172.518 50.3935 172.304 50.3088 172.169 50.1533C172.007 49.9849 171.948 49.7058 171.948 49.337V47.6266H171.462V47.193H171.948V46.4415L172.505 46.292Z" fill="#17CE89"/>
<path d="M174.597 46.3109C174.604 46.5053 174.461 46.6608 174.234 46.6608C174.032 46.6608 173.89 46.5053 173.89 46.3109C173.89 46.1106 174.039 45.9541 174.247 45.9541C174.461 45.9541 174.597 46.1106 174.597 46.3109ZM173.962 50.3277V47.192H174.532V50.3277H173.962Z" fill="#17CE89"/>
<path d="M178.315 48.7338C178.315 49.893 177.512 50.3994 176.754 50.3994C175.904 50.3994 175.251 49.7774 175.251 48.7857C175.251 47.7361 175.937 47.1201 176.805 47.1201C177.706 47.1211 178.315 47.775 178.315 48.7338ZM175.828 48.7667C175.828 49.4535 176.222 49.9718 176.78 49.9718C177.325 49.9718 177.733 49.4605 177.733 48.7538C177.733 48.2225 177.467 47.5487 176.793 47.5487C176.119 47.5487 175.828 48.1707 175.828 48.7667Z" fill="#17CE89"/>
<path d="M179.034 48.0411C179.034 47.7171 179.027 47.451 179.008 47.1929H179.513L179.546 47.7111H179.559C179.715 47.4131 180.078 47.1211 180.596 47.1211C181.03 47.1211 181.704 47.3802 181.704 48.4557V50.3285H181.134V48.5205C181.134 48.0151 180.947 47.5945 180.408 47.5945C180.033 47.5945 179.741 47.8607 179.644 48.1776C179.618 48.2484 179.605 48.346 179.605 48.4437V50.3295H179.035V48.0411H179.034Z" fill="#17CE89"/>
</g>
<defs>
<clipPath id="clip0_22129_45795">
<rect width="182.167" height="56" fill="white"/>
</clipPath>
</defs>
</svg>
