<svg width="22" height="22" viewBox="0 0 22 22" fill="none" xmlns="http://www.w3.org/2000/svg">
<path fill-rule="evenodd" clip-rule="evenodd" d="M14.7305 16.0137C15.8316 15.0482 16.8788 14.13 17.9494 13.1914C16.8832 12.2557 15.833 11.334 14.735 10.3704C14.735 10.6405 14.7343 10.8569 14.7351 11.0734C14.7377 11.8279 14.3775 12.2055 13.661 12.2045C12.2301 12.2029 10.7993 12.2032 9.36852 12.2034C9.29744 12.2034 9.22636 12.2102 9.1273 12.2153C9.1273 12.3114 9.1273 12.3934 9.1273 12.4752C9.12724 13.0209 9.12484 13.5665 9.12782 14.1121C9.13027 14.5449 8.96562 14.877 8.58877 15.0598C8.21437 15.2414 7.86497 15.1656 7.54997 14.8889C6.03685 13.5599 4.5229 12.232 3.00924 10.9036C2.68414 10.6183 2.35822 10.3339 2.03417 10.0471C1.52999 9.60104 1.51761 8.91994 2.02337 8.47433C3.87042 6.8471 5.72261 5.22638 7.5741 3.60468C7.88261 3.33444 8.23032 3.27092 8.59502 3.45268C8.95113 3.63014 9.12507 3.94379 9.12624 4.35927C9.12788 4.9126 9.127 5.46594 9.12724 6.01927C9.12724 6.10216 9.12724 6.18505 9.12724 6.30114C9.44433 6.30114 9.74093 6.29493 10.0373 6.30249C10.5905 6.31657 10.9973 6.73377 11.0005 7.28096C11.0035 7.80177 10.6123 8.25611 10.1166 8.2676C9.45993 8.28285 8.80249 8.28193 8.1458 8.2668C7.67088 8.2558 7.29403 7.85114 7.27072 7.34933C7.25764 7.06796 7.26833 6.78536 7.26833 6.43414C6.1723 7.39502 5.12316 8.31477 4.05102 9.2548C5.11715 10.1904 6.16733 11.1122 7.26418 12.0747C7.26418 11.8054 7.26436 11.5888 7.26412 11.3722C7.26331 10.6139 7.61755 10.2413 8.3382 10.2417C9.75443 10.2424 11.1707 10.2428 12.5869 10.2433C12.6726 10.2433 12.7583 10.2433 12.8722 10.2433C12.8722 10.135 12.8722 10.0532 12.8722 9.97133C12.8722 9.44105 12.8788 8.91065 12.8703 8.38056C12.863 7.93126 13.0146 7.57942 13.41 7.38647C13.8036 7.19444 14.1582 7.29744 14.4839 7.58422C16.0738 8.98438 17.6668 10.3805 19.2586 11.7782C19.4661 11.9602 19.673 12.1429 19.8812 12.324C20.5006 12.863 20.5076 13.5091 19.894 14.0479C18.2966 15.4506 16.6974 16.851 15.099 18.2523C14.8746 18.449 14.6516 18.6473 14.4258 18.842C14.1227 19.1034 13.7826 19.1734 13.424 19.0029C13.0575 18.8288 12.874 18.5127 12.8727 18.0865C12.8712 17.5332 12.8723 16.9799 12.8722 16.4266C12.8722 16.3437 12.8722 16.2609 12.8722 16.1451C12.5548 16.1451 12.2581 16.1517 11.9618 16.1437C11.4081 16.1288 11.0016 15.711 10.9991 15.1648C10.9966 14.6424 11.3859 14.1902 11.8827 14.1786C12.5394 14.1634 13.1968 14.1645 13.8535 14.1794C14.328 14.19 14.7052 14.595 14.7281 15.0968C14.741 15.378 14.7305 15.6606 14.7305 16.0137Z" fill="white"/>
</svg>
