<svg width="70" height="70" viewBox="0 0 70 70" fill="none" xmlns="http://www.w3.org/2000/svg">
<path d="M35.165 64.33C51.2724 64.33 64.33 51.2724 64.33 35.165C64.33 19.0576 51.2724 6 35.165 6C19.0576 6 6 19.0576 6 35.165C6 51.2724 19.0576 64.33 35.165 64.33Z" fill="#E42C66"/>
<path d="M39.3855 35.5499L46.8086 28.1268C47.8675 27.0679 47.8675 25.3511 46.8086 24.2922C45.7497 23.2333 44.033 23.2333 42.974 24.2922L35.5509 31.7154L28.1278 24.2922C27.0689 23.2333 25.3521 23.2333 24.2932 24.2922C23.2343 25.3511 23.2343 27.0679 24.2932 28.1268L31.7163 35.5499L24.2932 42.9731C23.2343 44.032 23.2343 45.7487 24.2932 46.8076C24.8226 47.337 25.5166 47.6018 26.2105 47.6018C26.9044 47.6018 27.5983 47.3371 28.1277 46.8076L35.5509 39.3845L42.974 46.8076C43.5035 47.337 44.1974 47.6018 44.8913 47.6018C45.5852 47.6018 46.2791 47.3371 46.8086 46.8076C47.8675 45.7487 47.8675 44.032 46.8086 42.9731L39.3855 35.5499Z" fill="white"/>
</svg>
