<svg width="16" height="14" viewBox="0 0 16 14" fill="none" xmlns="http://www.w3.org/2000/svg">
<path d="M8.6666 7.66732V11.3907L9.88526 10.172L10.8286 11.1153L7.99993 13.9433L5.17126 11.1153L6.1146 10.172L7.33326 11.3907V7.66732H8.6666ZM7.99993 0.333984C9.14458 0.334039 10.2493 0.754727 11.1041 1.51606C11.9588 2.2774 12.504 3.32629 12.6359 4.46332C13.4654 4.68953 14.1891 5.20005 14.6804 5.90567C15.1717 6.61129 15.3994 7.46711 15.3237 8.32358C15.248 9.18004 14.8737 9.98267 14.2663 10.5912C13.6589 11.1997 12.8569 11.5754 12.0006 11.6527V10.31C12.3074 10.2662 12.6024 10.1617 12.8683 10.0026C13.1343 9.84358 13.3659 9.63313 13.5496 9.38359C13.7334 9.13405 13.8656 8.8504 13.9385 8.54921C14.0114 8.24802 14.0236 7.93532 13.9744 7.62936C13.9252 7.32341 13.8155 7.03032 13.6517 6.76722C13.488 6.50411 13.2735 6.27626 13.0207 6.09696C12.768 5.91767 12.482 5.79051 12.1796 5.72292C11.8772 5.65534 11.5643 5.64867 11.2593 5.70332C11.3637 5.21724 11.358 4.71397 11.2427 4.23035C11.1275 3.74674 10.9055 3.29504 10.593 2.90834C10.2805 2.52163 9.88553 2.20972 9.43691 1.99545C8.98829 1.78117 8.49743 1.66996 8.00026 1.66996C7.5031 1.66996 7.01223 1.78117 6.56361 1.99545C6.115 2.20972 5.71999 2.52163 5.40753 2.90834C5.09507 3.29504 4.87307 3.74674 4.75778 4.23035C4.6425 4.71397 4.63686 5.21724 4.74126 5.70332C4.13303 5.5891 3.50434 5.72117 2.99349 6.07049C2.48264 6.41981 2.13148 6.95775 2.01726 7.56598C1.90304 8.17421 2.03512 8.80291 2.38444 9.31376C2.73376 9.8246 3.2717 10.1758 3.87993 10.29L3.99993 10.31V11.6527C3.14356 11.5755 2.34153 11.1999 1.73402 10.5914C1.1265 9.98298 0.752147 9.18036 0.676379 8.32387C0.60061 7.46738 0.828249 6.61151 1.31951 5.90583C1.81077 5.20016 2.5344 4.68958 3.36393 4.46332C3.49573 3.32624 4.04087 2.27726 4.89565 1.51589C5.75043 0.754531 6.85523 0.333893 7.99993 0.333984Z" fill="#17CE89"/>
</svg>
