<svg width="21" height="20" viewBox="0 0 21 20" fill="none" xmlns="http://www.w3.org/2000/svg">
<path d="M18.5883 4.41033L16.0891 1.91116C16.0119 1.83362 15.92 1.77213 15.8189 1.73023C15.7178 1.68833 15.6094 1.66683 15.5 1.66699H5.49996C5.39051 1.66683 5.2821 1.68833 5.18099 1.73023C5.07988 1.77213 4.98805 1.83362 4.91079 1.91116L2.41163 4.41033C2.33377 4.48756 2.27202 4.57948 2.22996 4.68076C2.1879 4.78204 2.16638 4.89066 2.16663 5.00033V15.8337C2.16663 16.7528 2.91413 17.5003 3.83329 17.5003H17.1666C18.0858 17.5003 18.8333 16.7528 18.8333 15.8337V5.00033C18.8335 4.89066 18.812 4.78204 18.77 4.68076C18.7279 4.57948 18.6662 4.48756 18.5883 4.41033ZM5.84496 3.33366H15.155L15.9883 4.16699H5.01163L5.84496 3.33366ZM3.83329 15.8337V5.83366H17.1666L17.1683 15.8337H3.83329Z" fill="#646A86"/>
<path d="M12.1667 7.5H8.83337V10H6.33337L10.5 14.1667L14.6667 10H12.1667V7.5Z" fill="#646A86"/>
</svg>
