<svg width="56" height="56" viewBox="0 0 56 56" fill="none" xmlns="http://www.w3.org/2000/svg">
<rect width="56" height="56" rx="15" fill="#9B75ED"/>
<path d="M40.7852 17.4883H31.1533V20.6253H34.3398V22.7605H31.1533V24.8473H34.3072V26.9498H31.1533V29.0524H34.3072V31.1549H31.1533V33.2575H34.3072V35.3601H31.1533V38.5139H40.7852C41.2698 38.5139 41.6661 38.1029 41.6661 37.5993V18.4029C41.6661 17.8993 41.2698 17.4883 40.7852 17.4883ZM39.5636 35.3601H35.3584V33.2575H39.5636V35.3601ZM39.5636 31.1549H35.3584V29.0524H39.5636V31.1549ZM39.5636 26.9498H35.3584V24.8473H39.5636V26.9498ZM39.5636 22.7447H35.3584V20.6421H39.5636V22.7447Z" fill="white"/>
<path d="M14.333 17.3711V38.6312L30.1022 41.6673V14.334L14.333 17.3711ZM24.3076 33.3412L22.4731 29.873C22.4037 29.7437 22.3322 29.5061 22.2576 29.1602H22.2292C22.1945 29.3232 22.1125 29.5713 21.9832 29.9035L20.1424 33.3412H17.284L20.6775 28.0175L17.5731 22.6927H20.4914L22.0137 25.8855C22.1325 26.1378 22.2386 26.4374 22.3333 26.7833H22.3627C22.4226 26.5751 22.5341 26.266 22.697 25.855L24.3896 22.6917H27.0619L23.8692 27.9712L27.1513 33.3401L24.3076 33.3412Z" fill="white"/>
</svg>
