<svg width="56" height="56" viewBox="0 0 56 56" fill="none" xmlns="http://www.w3.org/2000/svg">
<rect width="56" height="56" rx="15" fill="#2F80ED"/>
<path d="M41.3602 34.427L37.1868 24.667C36.4268 22.8804 35.2935 21.867 34.0002 21.8004C32.7202 21.7337 31.4802 22.627 30.5335 24.3337L28.0002 28.8804C27.4668 29.8404 26.7068 30.4137 25.8802 30.4804C25.0402 30.5604 24.2002 30.1204 23.5202 29.2537L23.2268 28.8804C22.2802 27.6937 21.1068 27.1204 19.9068 27.2404C18.7069 27.3604 17.6802 28.187 17.0002 29.5337L14.6935 34.1337C13.8669 35.8004 13.9469 37.7337 14.9202 39.307C15.8935 40.8804 17.5868 41.827 19.4402 41.827H36.4535C38.2402 41.827 39.9068 40.9337 40.8935 39.4404C41.9068 37.947 42.0668 36.067 41.3602 34.427Z" fill="white"/>
<path d="M21.2938 23.1735C23.7827 23.1735 25.8004 21.1558 25.8004 18.6668C25.8004 16.1779 23.7827 14.1602 21.2938 14.1602C18.8048 14.1602 16.7871 16.1779 16.7871 18.6668C16.7871 21.1558 18.8048 23.1735 21.2938 23.1735Z" fill="white"/>
</svg>
