<svg width="88" height="88" viewBox="0 0 88 88" fill="none" xmlns="http://www.w3.org/2000/svg">
<g opacity="0.7">
<path d="M77 14.896C83.846 22.6524 88 32.8411 88 44H84.834C84.8443 43.0645 84.6075 42.1269 84.1235 41.2886L73.3651 22.6545C75.6159 21.6937 77 19.4785 77 16.5626V14.896Z" fill="#17CE89"/>
<path d="M57.0814 1.97726C52.9489 0.692238 48.5553 0 44 0V7.85714H54.6071V7.414C54.6071 5.0358 55.5262 3.12519 57.0814 1.97726Z" fill="#17CE89"/>
<path d="M54.6071 10.2143H27.2013C25.4186 10.2143 23.7714 11.1654 22.8801 12.7092L6.16848 41.6546C5.27717 43.1984 5.27717 45.1004 6.16848 46.6442L22.8801 75.5896C23.7714 77.1334 25.4186 78.0844 27.2013 78.0844H60.6246C62.4072 78.0844 64.0544 77.1334 64.9457 75.5896L81.6574 46.6442C82.5487 45.1004 82.5487 43.1984 81.6574 41.6546L70.9865 23.172C70.8796 23.1764 70.7717 23.1786 70.6628 23.1786H60.9555C57.1599 23.1786 54.6071 20.5138 54.6071 16.5626V10.2143Z" fill="#17CE89"/>
<path d="M10.9735 58.9261C4.14327 66.6788 0 76.8555 0 88H44V80.0257H26.2186C24.323 80.0257 22.5715 79.0144 21.6237 77.3729L10.9735 58.9261Z" fill="#17CE89"/>
</g>
<mask id="mask0_21510_98083" style="mask-type:alpha" maskUnits="userSpaceOnUse" x="25" y="23" width="39" height="43">
<path fill-rule="evenodd" clip-rule="evenodd" d="M35.3999 23.2036H53.007C59.4964 23.2036 63.1099 26.9431 63.1099 33.3506V55.0522C63.1099 61.5648 59.4964 65.2203 53.007 65.2203H35.3999C29.0133 65.2203 25.2949 61.5648 25.2949 55.0522V33.3506C25.2949 26.9431 29.0133 23.2036 35.3999 23.2036ZM35.9671 32.9935V32.9725H42.2465C43.1519 32.9725 43.8872 33.7078 43.8872 34.609C43.8872 35.5355 43.1519 36.2708 42.2465 36.2708H35.9671C35.0616 36.2708 34.3284 35.5355 34.3284 34.6321C34.3284 33.7288 35.0616 32.9935 35.9671 32.9935ZM35.9671 45.7666H52.4376C53.341 45.7666 54.0763 45.0313 54.0763 44.1279C54.0763 43.2246 53.341 42.4872 52.4376 42.4872H35.9671C35.0616 42.4872 34.3284 43.2246 34.3284 44.1279C34.3284 45.0313 35.0616 45.7666 35.9671 45.7666ZM35.9671 55.3674H52.4376C53.2759 55.2833 53.9082 54.567 53.9082 53.7287C53.9082 52.8674 53.2759 52.1531 52.4376 52.0691H35.9671C35.3368 52.006 34.7276 52.3002 34.3915 52.8464C34.0553 53.3716 34.0553 54.0649 34.3915 54.6111C34.7276 55.1363 35.3368 55.4514 35.9671 55.3674Z" fill="white"/>
</mask>
<g mask="url(#mask0_21510_98083)">
<path fill-rule="evenodd" clip-rule="evenodd" d="M35.3999 23.2036H53.007C59.4964 23.2036 63.1099 26.9431 63.1099 33.3506V55.0522C63.1099 61.5648 59.4964 65.2203 53.007 65.2203H35.3999C29.0133 65.2203 25.2949 61.5648 25.2949 55.0522V33.3506C25.2949 26.9431 29.0133 23.2036 35.3999 23.2036ZM35.9671 32.9935V32.9725H42.2465C43.1519 32.9725 43.8872 33.7078 43.8872 34.609C43.8872 35.5355 43.1519 36.2708 42.2465 36.2708H35.9671C35.0616 36.2708 34.3284 35.5355 34.3284 34.6321C34.3284 33.7288 35.0616 32.9935 35.9671 32.9935ZM35.9671 45.7666H52.4376C53.341 45.7666 54.0763 45.0313 54.0763 44.1279C54.0763 43.2246 53.341 42.4872 52.4376 42.4872H35.9671C35.0616 42.4872 34.3284 43.2246 34.3284 44.1279C34.3284 45.0313 35.0616 45.7666 35.9671 45.7666ZM35.9671 55.3674H52.4376C53.2759 55.2833 53.9082 54.567 53.9082 53.7287C53.9082 52.8674 53.2759 52.1531 52.4376 52.0691H35.9671C35.3368 52.006 34.7276 52.3002 34.3915 52.8464C34.0553 53.3716 34.0553 54.0649 34.3915 54.6111C34.7276 55.1363 35.3368 55.4514 35.9671 55.3674Z" fill="white"/>
</g>
<path fill-rule="evenodd" clip-rule="evenodd" d="M61.4935 2.14502H70.077C73.4332 2.14502 75.6806 4.50129 75.6806 8.006V16.0955C75.6806 19.5903 73.4332 21.9456 70.077 21.9456H61.4935C58.1373 21.9456 55.88 19.5903 55.88 16.0955V8.006C55.88 4.50129 58.1373 2.14502 61.4935 2.14502ZM68.7593 15.0163C69.0959 14.6807 69.0959 14.1362 68.7593 13.7996L66.997 12.0373L68.7593 10.2741C69.0959 9.93844 69.0959 9.38402 68.7593 9.04741C68.4227 8.70981 67.8781 8.70981 67.5316 9.04741L65.7793 10.8087L64.017 9.04741C63.6705 8.70981 63.126 8.70981 62.7894 9.04741C62.4528 9.38402 62.4528 9.93844 62.7894 10.2741L64.5516 12.0373L62.7894 13.7897C62.4528 14.1362 62.4528 14.6807 62.7894 15.0163C62.9577 15.1846 63.1854 15.2747 63.4032 15.2747C63.6309 15.2747 63.8487 15.1846 64.017 15.0163L65.7793 13.2649L67.5415 15.0163C67.7098 15.1955 67.9276 15.2747 68.1455 15.2747C68.3732 15.2747 68.591 15.1846 68.7593 15.0163Z" fill="#F2994A"/>
</svg>
