<svg width="17" height="18" viewBox="0 0 17 18" fill="none" xmlns="http://www.w3.org/2000/svg">
<path d="M8.47506 0.666992C3.87506 0.666992 0.141724 4.40033 0.141724 9.00033C0.141724 13.6003 3.87506 17.3337 8.47506 17.3337C13.0751 17.3337 16.8084 13.6003 16.8084 9.00033C16.8084 4.40033 13.0834 0.666992 8.47506 0.666992ZM7.43339 11.5253C7.43339 11.9253 7.26672 12.0837 6.84172 12.0837H5.75839C5.33339 12.0837 5.16672 11.9253 5.16672 11.5253V6.47533C5.16672 6.07533 5.33339 5.91699 5.75839 5.91699H6.83339C7.25839 5.91699 7.42506 6.07533 7.42506 6.47533V11.5253H7.43339ZM11.8334 11.5253C11.8334 11.9253 11.6667 12.0837 11.2417 12.0837H10.1667C9.74172 12.0837 9.57506 11.9253 9.57506 11.5253V6.47533C9.57506 6.07533 9.74172 5.91699 10.1667 5.91699H11.2417C11.6667 5.91699 11.8334 6.07533 11.8334 6.47533V11.5253Z" fill="#646A86"/>
</svg>
