<svg width="21" height="22" viewBox="0 0 21 22" fill="none" xmlns="http://www.w3.org/2000/svg">
<path d="M9.96387 11.4536C9.96387 11.1773 10.1834 10.9861 10.5234 10.9507V11.9069C10.1976 11.8148 9.96387 11.7298 9.96387 11.4536Z" fill="white"/>
<path d="M11.0334 13.8973V12.8419C11.3663 12.9411 11.6143 13.1253 11.6143 13.359C11.6143 13.5928 11.4514 13.8336 11.0334 13.8973Z" fill="white"/>
<path fill-rule="evenodd" clip-rule="evenodd" d="M5.79167 11.283H4.375C3.20343 11.283 2.25 10.3296 2.25 9.15803V6.32471C2.25 5.15313 3.20343 4.19971 4.375 4.19971H17.125C18.2966 4.19971 19.25 5.15313 19.25 6.32471V9.15803C19.25 10.3296 18.2966 11.283 17.125 11.283H15.7083V17.658C15.7083 18.0497 15.3917 18.3664 15 18.3664H6.49999C6.10899 18.3664 5.79167 18.0497 5.79167 17.658V11.283ZM15.7083 9.86635V8.44972H16.4167C16.8084 8.44972 17.125 8.13236 17.125 7.74136C17.125 7.35036 16.8083 7.03304 16.4166 7.03304H5.08332C4.69232 7.03304 4.375 7.3504 4.375 7.7414C4.375 8.1324 4.69232 8.44972 5.08332 8.44972H5.79167V9.86635H4.375C3.98473 9.86635 3.66668 9.54833 3.66668 9.15803V6.32467C3.66668 5.9344 3.9847 5.61638 4.375 5.61638H17.125C17.516 5.61638 17.8333 5.9344 17.8333 6.32471V9.15803C17.8333 9.5483 17.516 9.86635 17.125 9.86635H15.7083ZM11.0334 14.9032V14.549C11.9543 14.4569 12.3722 13.9115 12.3722 13.3024C12.3722 12.4736 11.6709 12.2257 11.0334 12.0557V11.0003C11.2629 11.0598 11.4825 11.1526 11.6851 11.2765C11.7269 11.285 11.7708 11.285 11.8126 11.2765C12.0081 11.2801 12.1703 11.1249 12.1739 10.9294C12.1725 10.8614 12.1477 10.7963 12.103 10.7453C11.8091 10.4768 11.4308 10.3188 11.0335 10.299V9.92359C11.0299 9.78972 10.9194 9.68277 10.7855 9.68277H10.7777C10.641 9.67852 10.527 9.7869 10.5234 9.92359V10.2918C9.83209 10.2713 9.25127 10.8054 9.21302 11.496C9.21302 12.3106 9.88594 12.5373 10.5234 12.7002V13.8973C10.2259 13.8555 9.94475 13.7358 9.70887 13.5502C9.65007 13.5049 9.57782 13.4801 9.50344 13.4794C9.31362 13.4872 9.16344 13.643 9.16344 13.8336C9.16344 13.9037 9.18894 13.9717 9.23427 14.0248C9.5835 14.3542 10.0432 14.5412 10.5234 14.549V14.911C10.5319 15.0477 10.6488 15.1518 10.7855 15.144C10.9194 15.144 11.0299 15.0371 11.0334 14.9032Z" fill="white"/>
</svg>
