<svg width="56" height="56" viewBox="0 0 56 56" fill="none" xmlns="http://www.w3.org/2000/svg">
<rect width="56" height="56" rx="15" fill="#17CE89"/>
<path fill-rule="evenodd" clip-rule="evenodd" d="M24.667 28.7389C28.3398 28.7389 31.2838 25.7567 31.2838 22.0364C31.2838 18.3162 28.3398 15.334 24.667 15.334C20.9942 15.334 18.0501 18.3162 18.0501 22.0364C18.0501 25.7567 20.9942 28.7389 24.667 28.7389ZM24.667 32.0209C19.2726 32.0209 14.667 32.8834 14.667 36.3292C14.667 39.7737 19.2446 40.6673 24.667 40.6673C30.06 40.6673 34.667 39.8048 34.667 36.359C34.667 32.9131 30.0894 32.0209 24.667 32.0209ZM38.5309 24.7845H40.135C40.7953 24.7845 41.3337 25.3304 41.3337 26C41.3337 26.6695 40.7953 27.2154 40.135 27.2154H38.5309V28.7852C38.5309 29.4547 37.9939 30.0007 37.3323 30.0007C36.672 30.0007 36.1337 29.4547 36.1337 28.7852V27.2154H34.5323C33.8706 27.2154 33.3337 26.6695 33.3337 26C33.3337 25.3304 33.8706 24.7845 34.5323 24.7845H36.1337V23.2161C36.1337 22.5466 36.672 22.0007 37.3323 22.0007C37.9939 22.0007 38.5309 22.5466 38.5309 23.2161V24.7845Z" fill="white"/>
</svg>
