<svg width="56" height="56" viewBox="0 0 56 56" fill="none" xmlns="http://www.w3.org/2000/svg">
<rect width="56" height="56" rx="15" fill="#FF7976"/>
<g clip-path="url(#clip0_19591_180234)">
<path d="M28 34.765C29.933 34.765 31.5 33.8509 31.5 32.7233C31.5 31.5957 29.933 30.6816 28 30.6816C26.067 30.6816 24.5 31.5957 24.5 32.7233C24.5 33.8509 26.067 34.765 28 34.765Z" fill="white"/>
<path d="M39.7015 19.272C39.518 19.0885 39.2625 18.9959 39.0042 19.0192C38.8623 19.032 35.6707 19.3404 32.9155 21.3115C31.393 20.5713 29.7052 20.1823 27.9993 20.1823C26.2934 20.1823 24.6057 20.5713 23.0832 21.3115C20.328 19.3403 17.1364 19.0319 16.9945 19.0191C16.7357 18.996 16.4806 19.0885 16.2972 19.2719C16.1137 19.4555 16.0212 19.7109 16.0446 19.9693C16.0572 20.1083 16.3598 23.2325 18.2737 25.9676C17.5748 27.3422 17.2077 28.8596 17.2077 30.3906C17.2077 32.6895 18.0338 34.9258 19.541 36.7251V42.0573C19.541 42.5406 19.9328 42.9323 20.416 42.9323H22.4577C22.8441 42.9323 23.1848 42.6788 23.2958 42.3087L24.0244 39.8793C25.2904 40.3573 26.6233 40.599 27.9993 40.599C29.3754 40.599 30.7083 40.3573 31.9743 39.8793L32.7029 42.3087C32.8139 42.6788 33.1546 42.9323 33.541 42.9323H35.5827C36.0659 42.9323 36.4577 42.5406 36.4577 42.0573V36.7251C37.9648 34.9258 38.791 32.6895 38.791 30.3906C38.791 28.8596 38.4239 27.3422 37.725 25.9677C39.6389 23.2327 39.9416 20.1084 39.9542 19.9694C39.9775 19.711 39.8849 19.4555 39.7015 19.272ZM32.0827 26.599C32.5659 26.599 32.9577 26.9907 32.9577 27.474C32.9577 27.9572 32.5659 28.349 32.0827 28.349C31.5994 28.349 31.2077 27.9572 31.2077 27.474C31.2077 26.9907 31.5994 26.599 32.0827 26.599ZM23.916 26.599C24.3992 26.599 24.791 26.9907 24.791 27.474C24.791 27.9572 24.3992 28.349 23.916 28.349C23.4328 28.349 23.041 27.9572 23.041 27.474C23.041 26.9907 23.4328 26.599 23.916 26.599ZM27.9993 36.5156C25.0554 36.5156 22.7493 34.8502 22.7493 32.724C22.7493 30.5978 25.0554 28.9323 27.9993 28.9323C30.9432 28.9323 33.2493 30.5978 33.2493 32.724C33.2493 34.8502 30.9432 36.5156 27.9993 36.5156Z" fill="white"/>
<path d="M27.9997 18.4331C28.9577 18.4331 29.9169 18.5418 30.8525 18.7519C31.2956 18.1586 31.5581 17.4223 31.5581 16.6247C31.5581 14.6595 29.9649 13.0664 27.9997 13.0664C26.0345 13.0664 24.4414 14.6595 24.4414 16.6247C24.4414 17.4223 24.7038 18.1586 25.147 18.7519C26.0826 18.5418 27.0417 18.4331 27.9997 18.4331Z" fill="white"/>
</g>
<defs>
<clipPath id="clip0_19591_180234">
<rect width="29.8667" height="29.8667" fill="white" transform="translate(13.0664 13.0664)"/>
</clipPath>
</defs>
</svg>
