<svg width="19" height="18" viewBox="0 0 19 18" fill="none" xmlns="http://www.w3.org/2000/svg">
<path d="M5.29553 6.19484L6.10235 0.839844H1.90607L0.152688 5.42984C0.0986283 5.59304 0.0700684 5.76236 0.0700684 5.93984C0.0700684 7.06592 1.24307 7.97984 2.69249 7.97984C4.02869 7.97984 5.13335 7.20056 5.29553 6.19484ZM9.25007 7.97984C10.6985 7.97984 11.8725 7.06592 11.8725 5.93984C11.8725 5.89802 11.8694 5.8562 11.8674 5.81642L11.3482 0.839844H7.15193L6.63173 5.81234C6.62969 5.85416 6.62765 5.89598 6.62765 5.93984C6.62765 7.06592 7.80167 7.97984 9.25007 7.97984ZM14.3501 9.04676V13.0798H4.15007V9.05288C3.70331 9.21404 3.21167 9.30584 2.69249 9.30584C2.49359 9.30584 2.30081 9.28238 2.11007 9.25586V15.7318C2.11007 16.5172 2.75165 17.1598 3.53603 17.1598H14.9621C15.7475 17.1598 16.3901 16.5162 16.3901 15.7318V9.25688C16.1973 9.28649 16.0027 9.30318 15.8076 9.30686C15.3103 9.30636 14.8169 9.21832 14.3501 9.04676ZM18.3485 5.42984L16.593 0.839844H12.3978L13.2036 6.18668C13.3607 7.19648 14.4653 7.97984 15.8076 7.97984C17.256 7.97984 18.4301 7.06592 18.4301 5.93984C18.4301 5.76236 18.4015 5.59304 18.3485 5.42984Z" fill="white"/>
</svg>
